# xmcd CD database file
#
# Track frame offsets:
#	150
#	17529
#	36548
#	50878
#	69073
#	86321
#	106775
#	129950
#	153206
#
# Disc length: 2404 seconds
#
# Revision: 0
# Processed by: cddbd v1.4PL0 Copyright (c) Steve Scherf et al.
# Submitted via: CDex 1.50beta9
#
DISCID=63096209
DTITLE=Blood Sweat and Tears - Brand new day
DYEAR=1977
DGENRE=Blues
TTITLE0=Somebody I trusted
TTITLE1=Dreaming as one
TTITLE2=Same old blues
TTITLE3=Lady put out the light
TTITLE4=Womanizer
TTITLE5=Blue street
TTITLE6=Gimme that wine
TTITLE7=Rock and roll quen
TTITLE8=Don't explain
EXTD=YEAR: 1977
EXTT0=
EXTT1=
EXTT2=
EXTT3=
EXTT4=
EXTT5=
EXTT6=
EXTT7=
EXTT8=
PLAYORDER=
